<?xml version="1.0"?>
<svg width="347.25" height="107" xmlns="http://www.w3.org/2000/svg" xmlns:svg="http://www.w3.org/2000/svg">
 <defs>
  <style>.cls-3,.cls-5{fill:none;stroke:#27282d;stroke-width:2.5px}.cls-3{stroke-linecap:round;stroke-miterlimit:10}</style>
 </defs>
 <g class="layer">
  <title>Layer 1</title>
  <path d="m184.25,29l9.44,-18.57s9.9,18.29 9.46,18.57s-9.42,6.63 -9.42,6.63l-9.48,-6.63zm0.08,6.64l9.41,6.59l9.42,-6.59l-9.42,15.72l-9.41,-15.72z" fill="none" id="svg_1" stroke="#27282d" stroke-linecap="square" stroke-linejoin="round" stroke-width="2.5"/>
  <path d="m17.17,0l313.25,0a16.75,16.75 0 0 1 16.83,16.68l0,73.64a16.77,16.77 0 0 1 -16.92,16.68l-313.16,0a16.9,16.9 0 0 1 -16.92,-16.76l0,-73.56a16.77,16.77 0 0 1 16.92,-16.68z" fill="#13171c" id="svg_2" transform="matrix(1 0 0 1 0 0)"/>
  <path class="cls-3" d="m137.73,72.27l17.45,0c2,0 3.4,2.33 2.72,4.55l-3.49,11.58a3,3 0 0 1 -2.73,2.26l-19.52,0m7.7,-9.18l-10.87,0" id="svg_3"/>
  <path d="m96.44,38.72l-1.21,-0.3l-0.37,1.58l1.58,0l0,-1.28zm15.81,1.28a1.25,1.25 0 0 0 0,-2.5l0,2.5zm-10.17,-30l-6.83,28.42l2.43,0.59l6.85,-28.45l-2.45,-0.56zm-5.64,30l15.81,0l0,-2.5l-15.81,0l0,2.5z" fill="#27282d" id="svg_4"/>
  <path class="cls-3" d="m106.25,24.24l-13.62,4.76" id="svg_5"/>
  <path class="cls-5" d="m14.2,18.3l6.94,0l0,6.73l-6.94,0l0,-6.73zm-0.55,68.24l6.94,0l0,6.73l-6.94,0l0,-6.73zm179.03,-84.27l0,52.58l-62.85,0l0,52.15m-129.83,-41.07l78.25,0l0,40.8m177.07,0l0,-54.89l20.48,0m49.74,54.89l0,-54.89l-21.56,0m-48.66,16.53l70.44,0m-54.18,-8.37l37.06,0m-4.77,-40.58l0,15.51m-13.44,-16.61l0,11.77m-11.49,-13l0,10.1m2.44,32.06a8.29,8.29 0 0 1 -0.49,-2.78a8.67,8.67 0 0 1 17.34,0a8.29,8.29 0 0 1 -0.48,2.78" id="svg_6"/>
  <path class="cls-5" d="m275.8,59.63a14,14 0 0 1 -0.5,-3.68a14.7,14.7 0 0 1 29.39,0a14,14 0 0 1 -0.49,3.68m12.67,-57.63l0,25.66l30.13,0" id="svg_7"/>
  <path d="m29.82,21.54l8.1,-9.39l8.12,9.39m4.36,5.04l1.26,1.42m-14.3,-1.42l1.3,1.42m-14.03,-1.42l1.3,1.42m20.11,5.93l-8.12,9.4l-8.1,-9.4" fill="none" id="svg_8" stroke="#27282d" stroke-miterlimit="10" stroke-width="2.5"/>
  <path d="m39.25,58.39l4.42,0l9.65,14.61l0,-14.61l4.72,0l0,22.44l-4.32,0l-9.65,-14.55l0,14.55l-4.72,0l0,-22.44l-0.1,0zm34,23.02a14.73,14.73 0 0 1 -4.72,-0.77a8.59,8.59 0 0 1 -3.41,-2.41a9.9,9.9 0 0 1 -2.22,-3.66a15.5,15.5 0 0 1 0,-9.83a9.22,9.22 0 0 1 2.22,-3.66a8.49,8.49 0 0 1 3.51,-2.31a11.9,11.9 0 0 1 4.62,-0.77a14.75,14.75 0 0 1 4.73,0.77a11.21,11.21 0 0 1 3.52,2.31a11.58,11.58 0 0 1 2.21,3.66a15.08,15.08 0 0 1 0.7,4.92a15,15 0 0 1 -0.7,4.91a10.39,10.39 0 0 1 -2.11,3.66a8,8 0 0 1 -3.52,2.31a13,13 0 0 1 -4.83,0.87zm0,-4a5.49,5.49 0 0 0 4.63,-2a9.59,9.59 0 0 0 1.5,-5.78a9.26,9.26 0 0 0 -1.5,-5.68a5.37,5.37 0 0 0 -4.63,-2a5.47,5.47 0 0 0 -4.62,2a9.44,9.44 0 0 0 -1.51,5.68a9.59,9.59 0 0 0 1.51,5.78a5.34,5.34 0 0 0 4.62,1.95l0,0.05zm12.43,-19.02l5.57,0l3.67,15.61l3.82,-15.41l5.12,0l4,15.41l3.52,-15.6l5.23,0l-6.36,22.43l-4.72,0l-4.28,-16.57l-4.22,16.57l-4.62,0l-6.73,-22.44z" fill="#68aaff" id="svg_9"/>
  <path d="m119.54,58.39l8,0a13.44,13.44 0 0 1 4.32,0.57a7.41,7.41 0 0 1 2.71,1.54a5.23,5.23 0 0 1 1.41,2.22a7.83,7.83 0 0 1 0.4,2.6a8.67,8.67 0 0 1 -0.4,2.8a5.58,5.58 0 0 1 -1.41,2.31a7.41,7.41 0 0 1 -2.67,1.57a13.84,13.84 0 0 1 -4.32,0.58l-4.22,0l0,8.38l-3.92,0l0,-22.57l0.1,0zm8,10.88a9.51,9.51 0 0 0 2.51,-0.29a4.25,4.25 0 0 0 1.51,-0.77a3.34,3.34 0 0 0 0.8,-1.25a8.18,8.18 0 0 0 0.2,-1.64a7.5,7.5 0 0 0 -0.2,-1.64a2.45,2.45 0 0 0 -0.8,-1.15a3.62,3.62 0 0 0 -1.51,-0.68a8.73,8.73 0 0 0 -2.41,-0.29l-4.12,0l0,7.71l4.02,0zm21.64,9.35a7.1,7.1 0 0 1 -2.31,1.83a7,7 0 0 1 -3.32,0.77a7.67,7.67 0 0 1 -2.2,-0.29a5,5 0 0 1 -1.81,-0.87a3.77,3.77 0 0 1 -1.21,-1.54a5.18,5.18 0 0 1 -0.4,-2.22a4.89,4.89 0 0 1 0.8,-2.79a5.59,5.59 0 0 1 2,-1.64a12.16,12.16 0 0 1 2.82,-0.87a16.55,16.55 0 0 1 3.12,-0.29l2.51,-0.1l0,-0.61a3.2,3.2 0 0 0 -0.9,-2.61a3.75,3.75 0 0 0 -2.41,-0.67a4.71,4.71 0 0 0 -2.62,0.58a2.7,2.7 0 0 0 -1.1,1.64l-3.42,-0.39a4.94,4.94 0 0 1 2.21,-3.55a9.81,9.81 0 0 1 4.93,-1a10.64,10.64 0 0 1 3.31,0.48a4.65,4.65 0 0 1 2.07,1.32a4.89,4.89 0 0 1 1.11,2.12a11.21,11.21 0 0 1 0.3,2.7l0,10.21l-3.62,0l0,-2.21l0.14,0zm-2.51,-5.5a17,17 0 0 0 -2.71,0.39a5,5 0 0 0 -1.61,0.67a1.8,1.8 0 0 0 -0.7,0.87a3.51,3.51 0 0 0 -0.2,1.16a2,2 0 0 0 0.7,1.64a3.42,3.42 0 0 0 2.11,0.57a5.06,5.06 0 0 0 3.62,-1.15a4.29,4.29 0 0 0 1.2,-3.28l0,-0.99l-2.41,0.12zm9.85,10.6a5.69,5.69 0 0 0 1.91,0.29a2.11,2.11 0 0 0 1.5,-0.48a3.47,3.47 0 0 0 1,-1.74l0.6,-1.54l-7.13,-15.8l4.32,0l4.72,11.76l4.32,-11.76l4,0l-6.73,16.48c-0.4,1 -0.8,1.83 -1.11,2.5a4.94,4.94 0 0 1 -1.2,1.83a5.75,5.75 0 0 1 -1.47,1.16a4.75,4.75 0 0 1 -2.21,0.38a9.14,9.14 0 0 1 -1.61,-0.09a8.29,8.29 0 0 1 -1.5,-0.39l0.59,-2.6zm21.3,-19.27l0,2.32a6.42,6.42 0 0 1 4.22,-2.7a5.37,5.37 0 0 1 1.31,-0.1a4.4,4.4 0 0 1 2.81,0.87a5,5 0 0 1 1.61,2.16a6.86,6.86 0 0 1 5.53,-3a5.19,5.19 0 0 1 4,1.45a7.15,7.15 0 0 1 1.3,4.62l0,10.76l-3.72,0l0,-9.83a11.61,11.61 0 0 0 -0.2,-2a3.71,3.71 0 0 0 -0.5,-1.25a2.6,2.6 0 0 0 -0.8,-0.67a3.66,3.66 0 0 0 -1.11,-0.2a3.21,3.21 0 0 0 -1.71,0.39a5.9,5.9 0 0 0 -1.3,0.87a5.37,5.37 0 0 0 -0.81,1.25a3.72,3.72 0 0 0 -0.3,1.44l0,9.83l-3.7,0l0,-10c0,-1.45 -0.2,-2.41 -0.7,-2.89a2.39,2.39 0 0 0 -1.81,-0.77a8.41,8.41 0 0 0 -1.2,0.19a3.35,3.35 0 0 0 -1.31,0.68a4.85,4.85 0 0 0 -1.11,1.25a3.67,3.67 0 0 0 -0.5,1.93l0,9.73l-3.72,0l0,-16.33l3.72,0zm39.89,11.47a6.53,6.53 0 0 1 -2.21,4a8,8 0 0 1 -5.12,1.44a8.17,8.17 0 0 1 -6.13,-2.26a8.91,8.91 0 0 1 -2.11,-6.36a11,11 0 0 1 0.6,-3.76a8.84,8.84 0 0 1 1.71,-2.79a6.89,6.89 0 0 1 2.61,-1.74a9.33,9.33 0 0 1 3.32,-0.57a9.5,9.5 0 0 1 3.42,0.57a7.25,7.25 0 0 1 2.45,1.64a6.9,6.9 0 0 1 1.4,2.51a10.44,10.44 0 0 1 0.51,3.27l0,1.54l-12.3,0a5.17,5.17 0 0 0 1.2,3.57a4.41,4.41 0 0 0 3.42,1.35a3.8,3.8 0 0 0 2.61,-0.68a3.22,3.22 0 0 0 1.21,-1.92l3.41,0l0,0.19zm-3.41,-4.92a4.49,4.49 0 0 0 -1,-3.18a3.8,3.8 0 0 0 -3.11,-1.16a4,4 0 0 0 -3.12,1.16a5.14,5.14 0 0 0 -1.2,3.18l8.43,0zm10.95,-6.55l0,2.41a8.93,8.93 0 0 1 2.51,-2.21a6.61,6.61 0 0 1 3,-0.68c3.82,0 5.73,2 5.73,6.07l0,10.79l-3.72,0l0,-10.31a4.13,4.13 0 0 0 -0.7,-2.79a2.7,2.7 0 0 0 -2.22,-0.77a5.94,5.94 0 0 0 -1.8,0.29a3.31,3.31 0 0 0 -1.41,0.87a3.36,3.36 0 0 0 -0.91,1.34a3.93,3.93 0 0 0 -0.3,1.55l0,9.73l-3.71,0l0,-16.29l3.53,0zm13.67,2.89l0,-2.79l2.71,0l0,-4.43l3.72,0l0,4.43l4.22,0l0,2.79l-4.22,0l0,8.58a2.9,2.9 0 0 0 0.5,1.83a2.2,2.2 0 0 0 1.61,0.58a4.21,4.21 0 0 0 1.11,-0.1a3.92,3.92 0 0 0 1,-0.19l0.6,2.7a13,13 0 0 1 -3.41,0.48c-1.91,0 -3.22,-0.48 -3.92,-1.45a6.81,6.81 0 0 1 -1.11,-4.14l0,-8.19l-2.81,0l0,-0.1zm16.18,8.48a2.73,2.73 0 0 0 0.5,1.35a2.51,2.51 0 0 0 0.9,0.87a3,3 0 0 0 1.31,0.38a7.62,7.62 0 0 0 1.51,0.1a5.05,5.05 0 0 0 2.71,-0.58a1.85,1.85 0 0 0 0.8,-1.54a2.05,2.05 0 0 0 -0.5,-1.35a3.07,3.07 0 0 0 -2.11,-0.77c-1.3,-0.19 -2.51,-0.48 -3.62,-0.67a9.51,9.51 0 0 1 -2.61,-0.87a4.73,4.73 0 0 1 -1.61,-1.45a4,4 0 0 1 -0.5,-2.31a4.34,4.34 0 0 1 0.5,-2a3.71,3.71 0 0 1 1.51,-1.54a7.67,7.67 0 0 1 2.21,-1a13.42,13.42 0 0 1 2.82,-0.38a11.41,11.41 0 0 1 3.31,0.38a5.28,5.28 0 0 1 2.11,1.06a4.46,4.46 0 0 1 1.21,1.55a9.66,9.66 0 0 1 0.7,1.83l-3.42,0.48a4.24,4.24 0 0 0 -1.2,-1.83a4.61,4.61 0 0 0 -2.71,-0.58a9.86,9.86 0 0 0 -1.81,0.19a2.94,2.94 0 0 0 -1.11,0.48a1.34,1.34 0 0 0 -0.6,0.68a1.56,1.56 0 0 0 -0.1,0.67a2.06,2.06 0 0 0 0.1,0.87a1.35,1.35 0 0 0 0.5,0.58a1.88,1.88 0 0 0 0.9,0.38c0.41,0.1 0.91,0.2 1.51,0.29l2.11,0.39a14.66,14.66 0 0 1 2.82,0.67a5.18,5.18 0 0 1 1.8,1.06a3.15,3.15 0 0 1 0.91,1.45a5.53,5.53 0 0 1 0.3,1.92a4.23,4.23 0 0 1 -1.81,3.57a9.29,9.29 0 0 1 -5.42,1.35a13.48,13.48 0 0 1 -2.82,-0.29a8.91,8.91 0 0 1 -2.41,-0.87a4.57,4.57 0 0 1 -1.71,-1.64a6.21,6.21 0 0 1 -0.83,-2.7l3.82,0l0.03,-0.18z" fill="#fff" id="svg_10"/>
  <text fill="#ff7da0" font-family="Serif" font-size="24" id="svg_12" stroke-width="0" text-anchor="middle" x="178.63" xml:space="preserve" y="47.4">Pay by cryptocurrencies with</text>
 </g>
</svg>